<svg xmlns="http://www.w3.org/2000/svg" xmlns:xlink="http://www.w3.org/1999/xlink" version="1.1" viewBox="0 0 136 72" width="136" height="72">
    <path d="M8,20 L12,16 L92,16 L88,20 L8,20 L8,20 L8,20 L8,20 Z" class="stripe stripe-left" style="opacity: 0; fill: rgb(255, 255, 255); transform: translateX(-1000px);"></path>
    <path d="M4,24 L0,28 L80,28 L84,24 L4,24 L4,24 L4,24 L4,24 Z" class="stripe stripe-left" style="opacity: 0; fill: rgb(255, 255, 255); transform: translateX(-1000px);"></path>
    <path d="M16,12 L20,8 L100,8 L96,12 L16,12 L16,12 L16,12 L16,12 Z" class="stripe stripe-left" style="opacity: 0; fill: rgb(255, 255, 255); transform: translateX(-1000px);"></path>
    <path d="M24,4 L28,0 L108,7.10542736e-15 L104,4 L24,4 L24,4 L24,4 L24,4 Z" class="stripe stripe-left" style="opacity: 0; fill: rgb(255, 255, 255); transform: translateX(-1000px);"></path>

    <path d="M14,19 L18,15 L98,15 L94,19 L14,19 L14,19 L14,19 L14,19 Z" class="stripe stripe-left" style="opacity: 0; fill: rgb(255, 255, 255); transform: translateX(-1000px);"></path>
    <path d="M10,23 L6,27 L86,27 L90,23 L10,23 L10,23 L10,23 L10,23 Z" class="stripe stripe-left" style="opacity: 0; fill: rgb(255, 255, 255); transform: translateX(-1000px);"></path>
    <path d="M22,11 L26,7 L106,7 L102,11 L22,11 L22,11 L22,11 L22,11 Z" class="stripe stripe-left" style="opacity: 0; fill: rgb(255, 255, 255); transform: translateX(-1000px);"></path>
    <path d="M30,3 L34,-1 L114,5.32907051e-15 L110,3 L30,3 L30,3 L30,3 L30,3 Z" class="stripe stripe-left" style="opacity: 0; fill: rgb(255, 255, 255); transform: translateX(-1000px);"></path>

    <path d="M16,21 L20,17 L100,17 L96,21 L16,21 L16,21 L16,21 L16,21 Z" class="stripe stripe-left" style="opacity: 0; fill: rgb(255, 255, 255); transform: translateX(-1000px);"></path>
    <path d="M12,25 L8,29 L88,29 L92,25 L12,25 L12,25 L12,25 L12,25 Z" class="stripe stripe-left" style="opacity: 0; fill: rgb(255, 255, 255); transform: translateX(-1000px);"></path>
    <path d="M24,13 L28,9 L108,9 L104,13 L24,13 L24,13 L24,13 L24,13 Z" class="stripe stripe-left" style="opacity: 0; fill: rgb(255, 255, 255); transform: translateX(-1000px);"></path>
    <path d="M32,5 L36,1 L116,6.66133815e-15 L112,4 L32,5 L32,5 L32,5 L32,5 Z" class="stripe stripe-left" style="opacity: 0; fill: rgb(255, 255, 255); transform: translateX(-1000px);"></path>

    <path d="M20,22 L24,18 L104,18 L100,22 L20,22 L20,22 L20,22 L20,22 Z" class="stripe stripe-left" style="opacity: 0; fill: rgb(255, 255, 255); transform: translateX(-1000px);"></path>
    <path d="M16,26 L12,30 L92,30 L96,26 L16,26 L16,26 L16,26 L16,26 Z" class="stripe stripe-left" style="opacity: 0; fill: rgb(255, 255, 255); transform: translateX(-1000px);"></path>
    <path d="M28,14 L32,10 L112,10 L108,14 L28,14 L28,14 L28,14 L28,14 Z" class="stripe stripe-left" style="opacity: 0; fill: rgb(255, 255, 255); transform: translateX(-1000px);"></path>
    <path d="M36,6 L40,2 L120,7.10542736e-15 L116,4 L36,6 L36,6 L36,6 L36,6 Z" class="stripe stripe-left" style="opacity: 0; fill: rgb(255, 255, 255); transform: translateX(-1000px);"></path>
</svg>
